<?xml version="1.0" encoding="utf-8"?>
<!-- Generator: Adobe Illustrator 28.1.0, SVG Export Plug-In . SVG Version: 6.00 Build 0)  -->
<svg version="1.1" id="Layer_1" xmlns="http://www.w3.org/2000/svg" xmlns:xlink="http://www.w3.org/1999/xlink" x="0px" y="0px"
	 viewBox="0 0 200 200" style="enable-background:new 0 0 200 200;" xml:space="preserve">
<style type="text/css">
	.st0{fill:#DA1219;}
	.st1{fill:#070707;}
	.st2{fill:#870B14;}
</style>
<rect class="st0" width="200" height="200"/>
<g>
	<path class="st1" d="M89.15,39.16c2.5-0.49,5.01-0.93,7.54-1.17c3.24-0.31,6.49-0.37,9.74-0.18c4.55,0.27,9.02,1.03,13.4,2.29
		c7.78,2.23,14.85,5.84,21.22,10.84c7.4,5.81,13.22,12.92,17.43,21.34c2.88,5.75,4.79,11.82,5.78,18.18
		c0.78,5.02,0.95,10.06,0.49,15.12c-1.04,11.26-4.82,21.52-11.45,30.69c-7.18,9.94-16.46,17.21-27.87,21.74
		c-5.48,2.18-11.18,3.48-17.05,4.02c-5.52,0.5-11,0.29-16.46-0.69c-0.93-0.16-1.85-0.35-2.77-0.52c-1.35-0.22-2.67-0.56-3.98-0.95
		c-2.07-0.61-4.11-1.33-6.11-2.15c-3.35-1.38-6.56-3.03-9.62-4.97c-1.7-1.07-3.35-2.22-4.93-3.45c-1.74-1.36-3.39-2.82-5-4.34
		c-1.86-1.76-3.59-3.65-5.21-5.63c-1.74-2.13-3.33-4.37-4.76-6.72c-1.04-1.7-2.01-3.45-2.88-5.24c-1.81-3.7-3.23-7.54-4.28-11.52
		c-0.43-1.63-0.81-3.27-1.1-4.92c-0.29-1.62-0.5-3.24-0.66-4.88c-0.25-2.47-0.33-4.95-0.28-7.44c0.02-1.24,0.12-2.48,0.2-3.71
		c0.15-2.12,0.46-4.21,0.84-6.3c0.45-2.49,1.07-4.93,1.82-7.34c0.96-3.07,2.16-6.05,3.6-8.93c0.92-1.84,1.92-3.64,3.02-5.38
		c1.18-1.87,2.43-3.69,3.8-5.42c0.88-1.11,1.78-2.2,2.74-3.25c0.89-0.97,1.77-1.95,2.72-2.86c2.71-2.6,5.59-5,8.71-7.11
		c2.27-1.54,4.62-2.92,7.07-4.15c2.2-1.1,4.46-2.07,6.78-2.9c1.96-0.71,3.96-1.31,5.98-1.81C88.12,39.33,88.64,39.27,89.15,39.16z"
		/>
	<path class="st2" d="M89.15,39.16c-1.65,0.42-3.3,0.83-4.93,1.34c-5.71,1.79-11.06,4.33-16.03,7.66c-2.97,1.98-5.74,4.21-8.33,6.66
		c-3.14,2.98-5.94,6.25-8.41,9.81c-3.27,4.73-5.85,9.82-7.7,15.26c-1.33,3.9-2.26,7.9-2.8,11.98c-0.46,3.44-0.62,6.89-0.5,10.36
		c0.1,2.73,0.39,5.45,0.85,8.14c0.62,3.67,1.56,7.25,2.82,10.74c2.01,5.55,4.74,10.72,8.23,15.49c2.04,2.79,4.28,5.41,6.75,7.82
		c2.64,2.58,5.48,4.93,8.53,7.01c3.19,2.18,6.55,4.05,10.08,5.6c3.53,1.55,7.18,2.77,10.94,3.64c0.17,0.04,0.34,0.09,0.5,0.14
		c-1.46-0.12-2.91-0.38-4.35-0.65c-4.63-0.87-9.1-2.27-13.4-4.19c-5.13-2.29-9.86-5.22-14.18-8.82
		c-7.95-6.63-13.9-14.72-17.79-24.32c-2.2-5.43-3.57-11.07-4.14-16.9c-0.54-5.52-0.34-11,0.61-16.46
		c1.66-9.51,5.37-18.15,11.12-25.9c5.57-7.52,12.51-13.46,20.79-17.84c6.11-3.23,12.6-5.33,19.43-6.36
		C87.88,39.3,88.52,39.24,89.15,39.16z"/>
	<path class="st0" d="M102.69,160.23c-33.43-0.08-60.56-27.29-60.19-61c0.37-32.87,26.78-59.57,60.46-59.44
		c33.44,0.12,60.03,26.9,59.97,60.36C162.87,133.15,136.04,160.22,102.69,160.23z"/>
	<path d="M150.61,100.04c-0.01,26.46-21.54,47.95-48.09,47.86c-26.19-0.09-47.66-21.23-47.7-47.85
		c-0.04-25.66,20.74-47.77,47.54-47.94C128.95,51.93,150.56,73.39,150.61,100.04z"/>
	<path class="st0" d="M108.87,74.69c0,6.5,0.01,13-0.01,19.5c0,0.58,0.2,0.98,0.63,1.36c4.36,3.83,8.71,7.68,13.07,11.53
		c5.77,5.09,11.53,10.18,17.3,15.27c0.55,0.48,1.08,0.97,1.64,1.44c0.17,0.15,0.21,0.25,0.08,0.46c-2.11,3.34-4.6,6.36-7.46,9.08
		c-0.21,0.2-0.31,0.12-0.48-0.03c-4.48-3.96-8.97-7.92-13.46-11.89c-3.17-2.8-6.34-5.59-9.51-8.39c-0.35-0.31-0.74-0.42-1.18-0.24
		c-0.46,0.2-0.62,0.58-0.62,1.07c0,4.52,0,9.04,0,13.55c0,5.85-0.01,11.7,0.01,17.55c0,0.39-0.13,0.49-0.47,0.52
		c-2.47,0.26-4.95,0.42-7.43,0.31c-1.33-0.06-2.65-0.18-3.97-0.31c-0.36-0.03-0.48-0.15-0.48-0.54c0.01-9.45,0.01-18.9,0.01-28.35
		c0-0.79-0.46-1.25-1.17-1.17c-0.31,0.03-0.53,0.21-0.72,0.43c-2.39,2.64-4.79,5.28-7.18,7.92c-3.35,3.69-6.7,7.37-10.05,11.06
		c-0.55,0.6-1.1,1.2-1.64,1.81c-0.16,0.18-0.27,0.22-0.49,0.06c-3.16-2.37-5.96-5.11-8.43-8.19c-0.15-0.19-0.11-0.28,0.03-0.43
		c2.14-2.35,4.27-4.7,6.4-7.05c5.63-6.2,11.25-12.39,16.88-18.59c1.96-2.16,3.91-4.32,5.87-6.46c0.34-0.38,0.51-0.76,0.51-1.28
		c-0.01-13.22-0.01-26.43-0.02-39.65c0-0.39,0.13-0.5,0.49-0.54c2.13-0.24,4.27-0.39,6.42-0.34c1.68,0.03,3.35,0.17,5.03,0.35
		c0.31,0.03,0.43,0.13,0.43,0.48C108.86,61.57,108.87,68.13,108.87,74.69z"/>
	<path class="st2" d="M63.31,123.35c1.89-2.08,3.78-4.16,5.67-6.24c2.83-3.12,5.66-6.24,8.49-9.36c1.91-2.11,3.83-4.21,5.75-6.32
		c1.9-2.09,3.79-4.18,5.69-6.27c0.11-0.12,0.17-0.24,0.15-0.4c0-0.02,0-0.05,0-0.08c0-12.81,0-25.63,0-38.44
		c1.68-0.54,3.4-0.95,5.14-1.29c0.22-0.04,0.3,0.01,0.28,0.23c-0.01,0.14,0,0.28,0,0.41c0,12.86,0,25.73,0.01,38.59
		c0,0.28-0.08,0.49-0.27,0.7c-2.9,3.19-5.8,6.39-8.7,9.58c-2.34,2.57-4.68,5.14-7.01,7.71c-3.11,3.43-6.22,6.86-9.33,10.28
		c-1.19,1.31-2.38,2.61-3.57,3.92c-0.09,0.1-0.17,0.25-0.31,0.05C64.61,125.43,63.89,124.44,63.31,123.35z"/>
	<path class="st2" d="M139.13,118.91c1.22-2.79,2.18-5.66,2.84-8.63c0.54-2.41,0.89-4.85,1.04-7.32c0.41-6.43-0.47-12.68-2.64-18.74
		c-1.77-4.94-4.32-9.45-7.61-13.55c-3.01-3.74-6.51-6.95-10.49-9.62c-3.53-2.37-7.31-4.22-11.35-5.55
		c-0.01-0.59-0.01-0.59,0.55-0.48c3.7,0.72,7.24,1.9,10.65,3.51c3.45,1.63,6.66,3.66,9.59,6.1c3.57,2.96,6.65,6.38,9.21,10.26
		c2.87,4.36,4.96,9.05,6.24,14.1c0.68,2.68,1.1,5.4,1.28,8.16c0.16,2.42,0.12,4.84-0.12,7.25c-0.47,4.76-1.63,9.34-3.54,13.74
		c-0.54,1.24-1.14,2.46-1.77,3.65c-0.21,0.4-0.22,0.41-0.56,0.11c-1.03-0.9-2.05-1.81-3.07-2.71
		C139.3,119.09,139.22,119,139.13,118.91z"/>
	<path class="st2" d="M110.93,144.5c4.19-1.39,8.11-3.34,11.75-5.83c1.57-1.08,3.06-2.27,4.52-3.49c0.23-0.19,0.2-0.3-0.01-0.48
		c-2.55-2.24-5.1-4.49-7.64-6.74c-2.81-2.48-5.62-4.96-8.43-7.44c-0.06-0.05-0.12-0.09-0.18-0.13c0-1.41,0-2.82,0-4.29
		c0.46,0.27,0.78,0.62,1.13,0.93c3.11,2.74,6.22,5.5,9.33,8.24c3.14,2.77,6.28,5.54,9.42,8.31c0.41,0.36,0.82,0.73,1.24,1.09
		c0.2,0.17,0.28,0.28,0.01,0.5c-1.91,1.57-3.92,3-6.04,4.27c-3.07,1.83-6.32,3.27-9.73,4.34c-1.63,0.51-3.28,0.91-4.95,1.25
		C110.92,145.1,110.91,145.08,110.93,144.5z"/>
	<path class="st2" d="M89.04,125.14c0.41-0.57,0.92-1.06,1.39-1.58c1.24-1.39,2.49-2.75,3.74-4.12c0.07-0.08,0.12-0.2,0.26-0.21
		c0.1,0.11,0.05,0.24,0.05,0.36c0,8.33,0,16.67,0,25c0,0.51,0,0.51-0.5,0.41c-1.66-0.33-3.3-0.73-4.92-1.25
		c-0.12-0.16-0.11-0.36-0.11-0.54c0-5.85,0-11.7,0-17.55C88.95,125.48,88.96,125.3,89.04,125.14z"/>
	<path class="st0" d="M63.31,123.35c-0.99-1.56-1.79-3.22-2.54-4.9c-1.15-2.57-2.03-5.22-2.67-7.96c-0.39-1.67-0.7-3.35-0.89-5.05
		c-0.17-1.47-0.24-2.94-0.32-4.41c-0.06-1.17,0-2.33,0.05-3.49c0.08-1.79,0.31-3.58,0.62-5.35c0.53-2.99,1.34-5.9,2.45-8.73
		c1.01-2.57,2.23-5.03,3.69-7.38c1.02-1.64,2.12-3.22,3.32-4.72c0.65-0.81,1.33-1.6,2.03-2.37c0.99-1.09,2.03-2.12,3.12-3.1
		c1.37-1.23,2.81-2.37,4.31-3.44c1.39-0.99,2.84-1.88,4.33-2.71c1.92-1.07,3.92-1.96,5.97-2.72c0.75-0.28,1.52-0.52,2.27-0.77
		c0.12,0.09,0.11,0.22,0.12,0.34c0.01,0.13,0,0.25,0,0.38c0,12.45,0,24.89,0.01,37.34c0,0.46-0.11,0.83-0.43,1.18
		c-1.21,1.34-2.45,2.66-3.65,4c-1.28,1.43-2.58,2.84-3.86,4.27c-0.85,0.95-1.72,1.89-2.58,2.84c-1.12,1.23-2.24,2.47-3.36,3.71
		c-0.85,0.95-1.73,1.88-2.59,2.83c-1.33,1.47-2.66,2.93-3.99,4.4c-0.96,1.06-1.93,2.11-2.89,3.17c-0.71,0.78-1.41,1.57-2.12,2.34
		C63.61,123.17,63.5,123.32,63.31,123.35z"/>
	<path class="st0" d="M139.13,118.91c-0.51-0.34-0.94-0.78-1.4-1.18c-1.89-1.66-3.78-3.32-5.66-4.99c-1.18-1.04-2.36-2.1-3.54-3.14
		c-1.61-1.42-3.22-2.82-4.82-4.24c-1.28-1.13-2.53-2.27-3.81-3.4c-1.38-1.22-2.77-2.43-4.15-3.64c-1.38-1.21-2.76-2.43-4.15-3.63
		c-0.44-0.38-0.69-0.77-0.69-1.43c0.03-12.39,0.02-24.77,0.02-37.16c0-0.2,0.01-0.4,0.01-0.6c0.14-0.1,0.26-0.02,0.39,0.02
		c3.11,1.07,6.08,2.44,8.9,4.11c2.46,1.46,4.77,3.15,6.93,5.04c1.2,1.05,2.34,2.16,3.43,3.32c1.49,1.58,2.86,3.27,4.1,5.05
		c1.43,2.05,2.73,4.18,3.81,6.44c2.05,4.24,3.47,8.68,4.17,13.35c0.3,2.01,0.47,4.03,0.53,6.06c0.09,3.36-0.2,6.68-0.82,9.98
		c-0.63,3.36-1.63,6.6-3,9.72C139.31,118.71,139.28,118.86,139.13,118.91z"/>
	<path class="st0" d="M110.93,144.5c0-1.24-0.01-2.48-0.01-3.73c0-6.64,0-13.27,0-19.91c0-0.16,0.01-0.33,0.01-0.49
		c0.15-0.05,0.24,0.05,0.33,0.13c1.36,1.24,2.75,2.45,4.14,3.66c1.58,1.39,3.16,2.78,4.74,4.17c1.14,1,2.27,2.01,3.41,3.01
		c1.23,1.08,2.45,2.18,3.69,3.26c0.3,0.26,0.29,0.4-0.01,0.66c-2.49,2.14-5.14,4.06-8,5.66c-2.51,1.4-5.12,2.6-7.85,3.5
		C111.22,144.49,111.08,144.57,110.93,144.5z"/>
	<path class="st0" d="M89.04,125.14c0.01,0.09,0.02,0.17,0.02,0.26c0,6.12,0,12.23,0,18.35c-3.63-1.13-7.06-2.69-10.29-4.69
		c-0.43-0.26-0.84-0.54-1.27-0.79c-0.19-0.12-0.24-0.2-0.06-0.39c1.53-1.67,3.05-3.35,4.58-5.03c1.51-1.66,3.02-3.32,4.52-4.98
		c0.8-0.88,1.59-1.77,2.38-2.66C88.95,125.18,89,125.17,89.04,125.14z"/>
</g>
</svg>
