<?xml version="1.0" encoding="utf-8"?>
<!-- Generator: Adobe Illustrator 28.1.0, SVG Export Plug-In . SVG Version: 6.00 Build 0)  -->
<svg version="1.1" id="Layer_1" xmlns="http://www.w3.org/2000/svg" xmlns:xlink="http://www.w3.org/1999/xlink" x="0px" y="0px"
	 viewBox="0 0 200 200" style="enable-background:new 0 0 200 200;" xml:space="preserve">
<style type="text/css">
	.st0{fill:#DA1219;}
	.st1{fill:#870B14;}
</style>
<rect class="st0" width="200" height="200"/>
<g>
	<path class="st1" d="M64.84,119.15c3.72-2.66,7-2.29,10.86,0.29c3.31,2.22,7.46,3.18,11.78,4.1c-14.8-9.64-23.4-22.08-19.29-41.68
		c-3.52,1.46-5.65,2.45-7.86,3.22c-1.29,0.45-2.7,0.55-4.05,0.8c-0.25-1.38-0.92-2.84-0.68-4.13c1.47-7.83,3.25-15.6,4.66-23.43
		c0.29-1.64-0.21-3.65-0.96-5.19c-1.58-3.26,0.18-7.96,3.52-9.36c1.14-0.48,2.18-1.84,2.72-3.05c5.51-12.3,14.86-18.84,28.4-18.97
		c5.96-0.06,11.96-0.06,17.88,0.55c11.17,1.16,18.11,8.07,22.91,17.74c0.79,1.58,2.61,2.89,4.25,3.75c2.05,1.08,3.49,6.48,2.4,9.13
		c-0.72,1.76-1.36,3.89-1.05,5.68c1.29,7.35,3.04,14.62,4.41,21.96c0.31,1.65-0.2,3.45-0.33,5.18c-1.63-0.35-3.3-0.57-4.88-1.09
		c-1.85-0.6-3.61-1.46-6.95-2.85c3.65,19.27-4.34,32.21-20.12,41.13c0.36,0.46,0.71,0.91,1.07,1.37c4.45-1.95,8.85-4.06,13.38-5.78
		c1.79-0.68,3.99-1,5.84-0.64c2.73,0.53,5.34,1.78,7.97,2.79c9.55,3.68,14.5,10.75,14.93,20.88c0.23,5.31,0.42,10.67-0.13,15.92
		c-0.23,2.22-1.97,5.5-3.77,6.13c-7.31,2.53-14.9,4.3-22.43,6.12c-1.07,0.26-2.53-0.6-3.67-1.2
		c-22.54-11.93-42.21-27.51-59.17-46.55c-0.55-0.62-1.04-1.29-1.49-1.99C64.81,119.75,64.87,119.37,64.84,119.15z M75.33,75
		c0,4.87,0.45,9.86-0.09,14.74c-1.13,10.03,3.95,16.77,11.1,22.48c13.42,10.72,35.79,2.44,38.53-14.67
		c1.18-7.39,0.2-15.13,0.2-22.55C108.46,75,92.3,75,75.33,75z M134.54,51.83c-0.09-8.76-5.64-16.02-14.14-18.16
		c-13.44-3.39-26.91-3.24-40.37-0.03c-7.9,1.88-11.95,7.37-13.66,14.83c-1.25,5.43,0.03,10.27,4.77,13.68
		c4.91,3.53,10.2,3.93,15.42,0.93c3.29-1.89,6.4-4.16,9.33-6.58c3.11-2.57,5.72-2.48,8.83,0.04c3.2,2.6,6.55,5.17,10.21,7.02
		C123.96,68.09,134.64,61.57,134.54,51.83z"/>
	<path class="st1" d="M117.23,170.59c-20.58,1.52-40.89,1.46-60.86-3.73c-1.44-0.37-2.82-0.97-4.24-1.44
		c-5.13-1.69-8.11-4.62-7.41-10.63c0.5-4.26-0.01-8.63,0.12-12.94c0.31-9.95,5.29-17.19,14.17-20.52
		C75.53,140.94,95.13,157.12,117.23,170.59z"/>
	<path class="st1" d="M66.8,113.31c-4.83,1.9-9.25,3.63-14.17,5.56C45.46,101.7,38.28,84.5,30.91,66.85
		c2.36-0.98,4.27-1.77,6.18-2.56c-0.07,0.49-0.13,0.98-0.2,1.47c3.63,1.17,7.26,2.34,11.19,3.61c-0.06-0.34,0.14,0.15,0.03,0.24
		c-5.89,4.46-4.88,9.6-1.69,15.13c1.23,2.14,2.17,4.5,2.87,6.87c1.01,3.39,3.14,4.8,6.5,5.82c2.45,0.74,4.9,2.98,6.33,5.21
		C64.13,105.77,65.19,109.51,66.8,113.31z"/>
	<path class="st1" d="M95.25,35.8c3.36-0.47,6.77-0.47,10.12-0.01c4.62,0.64,9.19,1.26,13.73,2.03c6.45,1.09,9.86,5.64,10.61,11.6
		c0.35,2.83-0.73,7.2-2.75,8.63c-2.49,1.76-6.96,2.26-9.99,1.36c-3.62-1.08-6.73-4.09-9.86-6.51c-4.98-3.84-8.86-3.82-13.85,0.14
		c-2.72,2.16-5.54,4.24-8.5,6.03c-3.95,2.39-7.94,2.08-11.56-0.85c-3.54-2.87-3.31-6.61-2.14-10.46c1.62-5.32,4.84-9.08,10.57-9.99
		C86.15,37.06,90.69,36.43,95.25,35.8z"/>
</g>
</svg>
