<?xml version="1.0" encoding="utf-8"?>
<!-- Generator: Adobe Illustrator 28.1.0, SVG Export Plug-In . SVG Version: 6.00 Build 0)  -->
<svg version="1.1" id="Layer_1" xmlns="http://www.w3.org/2000/svg" xmlns:xlink="http://www.w3.org/1999/xlink" x="0px" y="0px"
	 viewBox="0 0 375 667" style="enable-background:new 0 0 375 667;" xml:space="preserve">
<style type="text/css">
	.st0{fill:none;}
	.st1{fill:#DA1219;}
	.st2{fill:#52B26E;}
	.st3{fill:none;stroke:#DA1219;stroke-width:0.4686;stroke-miterlimit:10;}
	.st4{fill:none;stroke:#DA1219;stroke-width:0.4686;stroke-linecap:round;stroke-linejoin:round;stroke-miterlimit:10;}
	.st5{fill:none;stroke:#52B26E;stroke-width:0.7072;stroke-linecap:round;stroke-linejoin:round;stroke-miterlimit:10;}
	.st6{fill:none;stroke:#DA1219;stroke-width:0.6013;stroke-linecap:round;stroke-linejoin:round;stroke-miterlimit:10;}
	.st7{fill:none;stroke:#DA1219;stroke-width:0.3339;stroke-linecap:round;stroke-linejoin:round;stroke-miterlimit:10;}
	.st8{fill:#ECF0F1;}
	.st9{fill:url(#New_Pattern);}
</style>
<pattern  width="124" height="73.64" patternUnits="userSpaceOnUse" id="New_Pattern" viewBox="0 -73.64 124 73.64" style="overflow:visible;">
	<g>
		<rect y="-73.64" class="st0" width="124" height="73.64"/>
		<g>
			<g id="N0ZARH_00000141449271438067762120000004757307342125039274_">
				<g>
					<path class="st1" d="M25.85-43.51c-0.64-0.63-1.26-1.24-1.88-1.85c0.42-0.41,0.83-0.81,1.24-1.21c0.59,0.6,1.2,1.21,1.82,1.83
						c0.64-0.65,1.25-1.27,1.86-1.89c0.44,0.44,0.84,0.85,1.27,1.27c-0.61,0.61-1.24,1.22-1.87,1.85c0.64,0.62,1.26,1.23,1.88,1.83
						c-0.44,0.43-0.85,0.83-1.27,1.24c-0.59-0.59-1.2-1.21-1.82-1.84c-0.63,0.64-1.24,1.26-1.85,1.88
						c-0.44-0.43-0.85-0.83-1.29-1.25C24.58-42.26,25.2-42.87,25.85-43.51z"/>
					<path class="st1" d="M16.43-41.63c0.67-0.65,1.3-1.25,1.93-1.87c-0.64-0.63-1.26-1.24-1.88-1.84c0.44-0.43,0.85-0.82,1.26-1.22
						c0.58,0.59,1.19,1.21,1.81,1.84c0.64-0.66,1.25-1.28,1.86-1.9c0.44,0.45,0.85,0.85,1.27,1.27c-0.62,0.6-1.24,1.2-1.87,1.82
						c0.66,0.65,1.29,1.26,1.95,1.91c-0.39,0.37-0.73,0.7-1.08,1.03c-0.22,0.21-0.22,0.21-0.43,0c-0.51-0.51-1.02-1.02-1.53-1.53
						c-0.04-0.04-0.08-0.07-0.14-0.13c-0.31,0.31-0.61,0.62-0.91,0.93c-0.28,0.28-0.56,0.56-0.84,0.84c-0.06,0.06-0.11,0.1-0.2,0.02
						C17.25-40.84,16.86-41.21,16.43-41.63z"/>
					<path class="st1" d="M36.4-46.64c0.44,0.44,0.84,0.84,1.26,1.26c-0.63,0.61-1.25,1.21-1.88,1.82c0.67,0.65,1.29,1.25,1.92,1.87
						c-0.46,0.45-0.87,0.85-1.29,1.26c-0.6-0.61-1.21-1.22-1.83-1.85c-0.63,0.64-1.24,1.26-1.84,1.87
						c-0.44-0.44-0.84-0.84-1.28-1.27c0.31-0.3,0.63-0.61,0.94-0.92c0.26-0.25,0.5-0.51,0.77-0.76c0.13-0.12,0.13-0.19,0-0.32
						c-0.54-0.53-1.07-1.06-1.6-1.6c-0.03-0.03-0.06-0.07-0.09-0.1c0.41-0.41,0.81-0.81,1.21-1.21c0.6,0.6,1.21,1.22,1.82,1.84
						C35.17-45.39,35.78-46.01,36.4-46.64z"/>
				</g>
			</g>
			<path class="st2" d="M20.14-38.4l-0.09,0.06c0.02-0.02,0.03-0.03,0.05-0.05C20.11-38.39,20.12-38.4,20.14-38.4z"/>
			<path class="st3" d="M16.37-48.23l0.19,0.2c0.66,0.69,1.75,0.7,2.42,0.02l0.23-0.23h0c0.66,0.77,1.85,0.79,2.54,0.04l0.04-0.04
				l0.07,0.07c0.68,0.74,1.85,0.73,2.52-0.02l0.05-0.05l0.09,0.09c0.69,0.73,1.85,0.71,2.51-0.05l0.04-0.05l0.09,0.09
				c0.69,0.73,1.86,0.7,2.51-0.05l0.03-0.04l0.13,0.14c0.69,0.71,1.83,0.69,2.49-0.05l0.08-0.09l0.04,0.04
				c0.69,0.75,1.88,0.73,2.54-0.04l0,0l0.08,0.09c0.66,0.73,1.8,0.75,2.49,0.04l0.13-0.14l0,0c0.74,0.8,1.99,0.82,2.75,0.05
				l0.05-0.05v-1.04h-0.33"/>
			<line class="st4" x1="39.02" y1="-39.56" x2="15" y2="-39.56"/>
			<path class="st5" d="M14.89-35.9"/>
			<polyline class="st3" points="13.68,-49.27 17.18,-49.27 19.88,-49.27 22.48,-49.27 25.2,-49.27 30.3,-49.27 32.76,-49.27 
				35.47,-49.27 38.17,-49.27 40.22,-49.27 			"/>
			<path class="st3" d="M14-49.27h-0.36v1.04l0.13,0.11c0.36,0.3,0.8,0.45,1.23,0.45c0.49,0,0.99-0.19,1.36-0.56l0.19,0.2"/>
			<polyline class="st4" points="15,-47.67 15,-44.21 14.91,-39.58 13.87,-39.58 13.87,-37.5 40.15,-37.5 40.15,-39.56 
				39.02,-39.56 39.02,-44.17 39.02,-47.67 			"/>
			<polyline class="st4" points="14.89,-37.5 14.89,-33.76 39.02,-33.76 39.02,-37.5 			"/>
			<line class="st4" x1="14.89" y1="-33.76" x2="13.64" y2="-33.76"/>
			<g id="GkkgXN_00000071523684074763513240000012942002827211908019_">
				<g>
					<path class="st6" d="M27.24-56.32c-0.06-1.08,0.5-1.9,1.22-2.7c0.97-1.07,1.96-2.13,1.87-3.7c-0.09-1.46-1.36-2.73-2.96-2.91
						c-1.56-0.18-3.13,0.92-3.42,2.35"/>
					<path class="st6" d="M13.25-48.37c0.03-0.24-0.11-1.66,0.25-1.77c2.92-0.9,5.21-2.75,7.73-4.27c1.9-1.15,4.01-1.76,6.26-1.65
						c2.53,0.13,4.73,1.09,6.77,2.52c2.05,1.44,4.23,2.74,6.72,3.51v1.67"/>
				</g>
			</g>
			<line class="st4" x1="40.29" y1="-33.79" x2="39.04" y2="-33.79"/>
			<g id="GkkgXN_00000119118156395908527640000006838545358987329690_">
				<path class="st7" d="M16.09-50.22c2.35-0.69,4.19-2.12,6.22-3.29c1.53-0.89,3.23-1.36,5.03-1.27c2.03,0.1,3.81,0.84,5.45,1.94
					c1.65,1.11,3.41,2.11,5.41,2.71L16.09-50.22z"/>
			</g>
		</g>
		<g>
			<g>
				<text transform="matrix(1 0 0 1 45.085 -24.438)" class="st1" style="font-family:'Verilate-Reguler'; font-size:9.2222px;">Explore</text>
				<text transform="matrix(1 0 0 1 38.98 -16.6812)" class="st1" style="font-family:'Verilate-Reguler'; font-size:10.2929px;">Waterloo</text>
			</g>
			<text transform="matrix(1 0 0 1 44.2197 -8.751)" class="st1" style="font-family:'Verilate-Reguler'; font-size:6.3343px;">-Amsterdam-</text>
		</g>
		<g>
			<g id="N0ZARH_00000150808913486480816930000008156046036545145020_">
				<g>
					<path class="st1" d="M95.62-43.51c-0.64-0.63-1.26-1.24-1.88-1.85c0.42-0.41,0.83-0.81,1.24-1.21c0.59,0.6,1.2,1.21,1.82,1.83
						c0.64-0.65,1.25-1.27,1.86-1.89c0.44,0.44,0.84,0.85,1.27,1.27c-0.61,0.61-1.24,1.22-1.87,1.85c0.64,0.62,1.26,1.23,1.88,1.83
						c-0.44,0.43-0.85,0.83-1.27,1.24c-0.59-0.59-1.2-1.21-1.82-1.84c-0.63,0.64-1.24,1.26-1.85,1.88
						c-0.44-0.43-0.85-0.83-1.29-1.25C94.35-42.26,94.97-42.87,95.62-43.51z"/>
					<path class="st1" d="M86.2-41.63c0.67-0.65,1.3-1.25,1.93-1.87c-0.64-0.63-1.26-1.24-1.88-1.84c0.44-0.43,0.85-0.82,1.26-1.22
						c0.58,0.59,1.19,1.21,1.81,1.84c0.64-0.66,1.25-1.28,1.86-1.9c0.44,0.45,0.85,0.85,1.27,1.27c-0.62,0.6-1.24,1.2-1.87,1.82
						c0.66,0.65,1.29,1.26,1.95,1.91c-0.39,0.37-0.73,0.7-1.08,1.03c-0.22,0.21-0.22,0.21-0.43,0c-0.51-0.51-1.02-1.02-1.53-1.53
						c-0.04-0.04-0.08-0.07-0.14-0.13c-0.31,0.31-0.61,0.62-0.91,0.93c-0.28,0.28-0.56,0.56-0.84,0.84c-0.06,0.06-0.11,0.1-0.2,0.02
						C87.02-40.84,86.63-41.21,86.2-41.63z"/>
					<path class="st1" d="M106.17-46.64c0.44,0.44,0.84,0.84,1.26,1.26c-0.63,0.61-1.25,1.21-1.88,1.82
						c0.67,0.65,1.29,1.25,1.92,1.87c-0.46,0.45-0.87,0.85-1.29,1.26c-0.6-0.61-1.21-1.22-1.83-1.85c-0.63,0.64-1.24,1.26-1.84,1.87
						c-0.44-0.44-0.84-0.84-1.28-1.27c0.31-0.3,0.63-0.61,0.94-0.92c0.26-0.25,0.5-0.51,0.77-0.76c0.13-0.12,0.13-0.19,0-0.32
						c-0.54-0.53-1.07-1.06-1.6-1.6c-0.03-0.03-0.06-0.07-0.09-0.1c0.41-0.41,0.81-0.81,1.21-1.21c0.6,0.6,1.21,1.22,1.82,1.84
						C104.94-45.39,105.55-46.01,106.17-46.64z"/>
				</g>
			</g>
			<path class="st2" d="M89.91-38.4l-0.09,0.06c0.02-0.02,0.03-0.03,0.05-0.05C89.88-38.39,89.89-38.4,89.91-38.4z"/>
			<path class="st3" d="M86.14-48.23l0.19,0.2c0.66,0.69,1.75,0.7,2.42,0.02l0.23-0.23l0,0c0.66,0.77,1.85,0.79,2.54,0.04l0.04-0.04
				l0.07,0.07c0.68,0.74,1.85,0.73,2.52-0.02l0.05-0.05l0.09,0.09c0.69,0.73,1.85,0.71,2.51-0.05l0.04-0.05l0.09,0.09
				c0.69,0.73,1.86,0.7,2.51-0.05l0.03-0.04l0.13,0.14c0.69,0.71,1.83,0.69,2.49-0.05l0.08-0.09l0.04,0.04
				c0.69,0.75,1.88,0.73,2.54-0.04l0,0l0.08,0.09c0.66,0.73,1.8,0.75,2.49,0.04l0.13-0.14l0,0c0.74,0.8,1.99,0.82,2.75,0.05
				l0.05-0.05v-1.04h-0.33"/>
			<line class="st4" x1="108.79" y1="-39.56" x2="84.78" y2="-39.56"/>
			<path class="st5" d="M84.66-35.9"/>
			<polyline class="st3" points="83.46,-49.27 86.95,-49.27 89.65,-49.27 92.25,-49.27 94.97,-49.27 100.07,-49.27 102.54,-49.27 
				105.24,-49.27 107.94,-49.27 109.99,-49.27 			"/>
			<path class="st3" d="M83.77-49.27h-0.36v1.04l0.13,0.11c0.36,0.3,0.8,0.45,1.23,0.45c0.49,0,0.99-0.19,1.36-0.56l0.19,0.2"/>
			<polyline class="st4" points="84.78,-47.67 84.78,-44.21 84.68,-39.58 83.64,-39.58 83.64,-37.5 109.92,-37.5 109.92,-39.56 
				108.79,-39.56 108.79,-44.17 108.79,-47.67 			"/>
			<polyline class="st4" points="84.66,-37.5 84.66,-33.76 108.79,-33.76 108.79,-37.5 			"/>
			<line class="st4" x1="84.66" y1="-33.76" x2="83.41" y2="-33.76"/>
			<g id="GkkgXN_00000024716240919590237450000007932627081220155053_">
				<g>
					<path class="st6" d="M97.01-56.32c-0.06-1.08,0.5-1.9,1.22-2.7c0.97-1.07,1.96-2.13,1.87-3.7c-0.09-1.46-1.36-2.73-2.96-2.91
						c-1.56-0.18-3.13,0.92-3.42,2.35"/>
					<path class="st6" d="M83.02-48.37c0.03-0.24-0.11-1.66,0.25-1.77c2.92-0.9,5.21-2.75,7.73-4.27c1.9-1.15,4.01-1.76,6.26-1.65
						c2.53,0.13,4.73,1.09,6.77,2.52c2.05,1.44,4.23,2.74,6.72,3.51v1.67"/>
				</g>
			</g>
			<line class="st4" x1="110.06" y1="-33.79" x2="108.81" y2="-33.79"/>
			<g id="GkkgXN_00000109728375113788234440000014280491410108784790_">
				<path class="st7" d="M85.86-50.22c2.35-0.69,4.19-2.12,6.22-3.29c1.53-0.89,3.23-1.36,5.03-1.27c2.03,0.1,3.81,0.84,5.45,1.94
					c1.65,1.11,3.41,2.11,5.41,2.71L85.86-50.22z"/>
			</g>
		</g>
	</g>
</pattern>
<rect class="st8" width="375" height="667"/>
<rect class="st9" width="375" height="667"/>
</svg>
