<?xml version="1.0" encoding="UTF-8"?>
<svg id="Laag_1" data-name="Laag 1" xmlns="http://www.w3.org/2000/svg" viewBox="0 0 200 200">
  <g id="N0ZARH">
    <g>
      <path d="M97.09,88.02c-1.54-1.52-3.03-2.98-4.5-4.44,1.01-.99,1.99-1.95,2.97-2.92,1.42,1.43,2.89,2.91,4.37,4.4,1.54-1.56,3.01-3.05,4.48-4.54,1.05,1.06,2.02,2.03,3.04,3.06-1.48,1.46-2.97,2.93-4.5,4.44,1.54,1.5,3.03,2.96,4.51,4.4-1.06,1.03-2.04,2-3.04,2.98-1.41-1.42-2.88-2.9-4.38-4.41-1.51,1.54-2.98,3.04-4.43,4.52-1.06-1.04-2.05-2-3.09-3.01,1.52-1.49,3.01-2.95,4.58-4.5Z" fill="#fff" stroke-width="0"/>
      <path d="M74.45,92.54c1.62-1.56,3.11-3.01,4.64-4.49-1.54-1.51-3.03-2.97-4.52-4.43,1.05-1.03,2.03-1.98,3.02-2.93,1.4,1.42,2.86,2.9,4.36,4.42,1.55-1.58,3.01-3.08,4.47-4.57,1.07,1.07,2.03,2.04,3.04,3.05-1.48,1.44-2.97,2.89-4.5,4.37,1.59,1.56,3.09,3.03,4.68,4.59-.93.89-1.76,1.68-2.59,2.48q-.53.5-1.03,0c-1.22-1.23-2.45-2.46-3.67-3.69-.09-.09-.19-.17-.35-.31-.74.75-1.46,1.49-2.18,2.22-.67.67-1.34,1.34-2.01,2.02-.15.15-.27.25-.47.05-.92-.89-1.85-1.78-2.89-2.78Z" fill="#fff" stroke-width="0"/>
      <path d="M122.43,80.51c1.07,1.07,2.03,2.03,3.03,3.03-1.51,1.46-3.01,2.92-4.52,4.38,1.6,1.55,3.1,3.01,4.61,4.48-1.11,1.08-2.09,2.05-3.1,3.04-1.44-1.46-2.9-2.94-4.39-4.45-1.52,1.55-2.98,3.03-4.43,4.5-1.05-1.05-2.02-2.02-3.06-3.06.74-.72,1.51-1.46,2.27-2.2.62-.6,1.21-1.23,1.84-1.82.31-.29.31-.47,0-.77-1.3-1.26-2.57-2.55-3.85-3.83-.08-.08-.15-.18-.21-.25.98-.98,1.95-1.95,2.91-2.91,1.44,1.45,2.9,2.93,4.38,4.42,1.55-1.57,3.02-3.06,4.52-4.57Z" fill="#fff" stroke-width="0"/>
    </g>
  </g>
  <g>
    <path d="M58.98,130.17h5.56l-.69,1.06h-9.03v-12.37h9.03l.69,1.06h-5.56v3.14h4.5v1.06h-4.5v6.03Z" fill="#fff" stroke-width="0"/>
    <path d="M70.97,118.87l2.7,4.15,3.86-4.15h1.43l-4.7,5.07,4.7,7.3h-4.95l-2.7-4.16-3.86,4.16h-1.43l4.72-5.07-4.72-7.29h4.95Z" fill="#fff" stroke-width="0"/>
    <path d="M80.96,118.87h5.74c.73,0,1.43.1,2.11.3.68.2,1.29.48,1.83.84.54.36.97.8,1.3,1.31.33.51.49,1.07.49,1.68s-.17,1.17-.49,1.68c-.33.51-.76.95-1.3,1.31-.54.36-1.15.64-1.83.84-.68.2-1.39.3-2.11.3h-1.58v4.11h-4.15v-12.37ZM85.12,126.07c.45,0,.86-.08,1.24-.25s.71-.38,1-.66c.29-.27.52-.6.68-.98.16-.38.25-.77.25-1.19s-.08-.83-.25-1.2c-.17-.37-.39-.7-.68-.98-.29-.28-.62-.5-1-.66-.38-.16-.79-.24-1.24-.24v6.13Z" fill="#fff" stroke-width="0"/>
    <path d="M103.89,130.17l-.69,1.06h-9.03v-12.37h4.15v11.3h5.56Z" fill="#fff" stroke-width="0"/>
    <path d="M110.99,131.24c-.92,0-1.79-.16-2.61-.48-.82-.32-1.53-.76-2.14-1.32-.61-.56-1.09-1.22-1.45-1.97-.35-.75-.53-1.55-.53-2.41s.18-1.66.53-2.41c.35-.75.84-1.41,1.45-1.97s1.32-1,2.14-1.32c.82-.32,1.69-.48,2.61-.48s1.79.16,2.61.48c.82.32,1.53.76,2.13,1.32s1.08,1.22,1.43,1.97.53,1.55.53,2.41-.18,1.66-.53,2.41-.83,1.41-1.43,1.97c-.6.56-1.31,1-2.13,1.32-.82.32-1.69.48-2.61.48ZM108.42,125.05c0,.71.07,1.37.2,1.99.13.62.31,1.16.54,1.62.23.46.5.83.82,1.1.31.27.65.41,1.01.41s.68-.14.99-.41c.31-.27.58-.64.82-1.1.23-.46.41-1,.54-1.62.13-.62.2-1.28.2-1.99s-.07-1.37-.2-1.99-.31-1.16-.54-1.62c-.23-.46-.5-.83-.82-1.1-.31-.27-.64-.41-.99-.41-.36,0-.7.14-1.01.41-.31.27-.58.64-.82,1.1-.23.46-.41,1-.54,1.62s-.2,1.28-.2,1.99Z" fill="#fff" stroke-width="0"/>
    <path d="M119.42,118.87h5.74c.84,0,1.61.11,2.31.32s1.31.51,1.82.88c.51.37.91.81,1.19,1.31s.42,1.04.42,1.62c0,.41-.07.78-.21,1.11-.14.33-.31.63-.51.89-.2.26-.41.49-.63.67-.22.18-.42.33-.61.45l2.5,5.12h-4.62l-2-4.11h-1.24v4.11h-4.16v-12.37ZM123.58,126.07c.44,0,.86-.08,1.24-.25.38-.17.71-.38,1-.66.29-.27.51-.6.68-.98.17-.38.25-.77.25-1.19s-.08-.83-.25-1.2c-.17-.37-.39-.7-.68-.98-.29-.28-.62-.5-1-.66-.38-.16-.79-.24-1.24-.24v6.13Z" fill="#fff" stroke-width="0"/>
    <path d="M137.7,130.17h5.56l-.69,1.06h-9.03v-12.37h9.03l.69,1.06h-5.56v3.14h4.5v1.06h-4.5v6.03Z" fill="#fff" stroke-width="0"/>
  </g>
  <g>
    <path d="M42.68,138.24l3.89,11.98,1.74-6.68-1.44-5.3h4.89l3.17,11.98,3.86-11.98h1.27l-4.53,13.8h-4.89l-1.74-6.32-1.74,6.32h-4.91l-4.5-13.8h4.91Z" fill="#fff" stroke-width="0"/>
    <path d="M63.43,138.24h4.91l4.75,13.8h-4.91l-1.3-3.81h-5.63l-1.32,3.81h-1.24l4.75-13.8ZM61.67,147.04h4.8l-2.4-6.98-2.4,6.98Z" fill="#fff" stroke-width="0"/>
    <path d="M87.03,139.42h-4.91v12.61h-4.64v-12.61h-4.89l.77-1.19h12.89l.77,1.19Z" fill="#fff" stroke-width="0"/>
    <path d="M93.6,150.85h6.21l-.77,1.19h-10.08v-13.8h10.08l.77,1.19h-6.21v3.5h5.02v1.19h-5.02v6.74Z" fill="#fff" stroke-width="0"/>
    <path d="M102.16,138.24h6.4c.94,0,1.8.12,2.58.36s1.46.57,2.03.98,1.01.9,1.33,1.46c.31.56.47,1.16.47,1.81,0,.46-.08.87-.23,1.24s-.34.7-.57.99c-.22.29-.46.54-.7.75-.25.2-.47.37-.68.5l2.79,5.71h-5.16l-2.24-4.58h-1.38v4.58h-4.64v-13.8ZM106.8,146.27c.5,0,.96-.09,1.38-.28.42-.18.8-.43,1.12-.73.32-.3.57-.67.76-1.09.18-.42.28-.86.28-1.32s-.09-.92-.28-1.34c-.18-.41-.44-.78-.76-1.09-.32-.31-.7-.56-1.12-.73-.42-.17-.88-.26-1.38-.26v6.85Z" fill="#fff" stroke-width="0"/>
    <path d="M128.77,150.85l-.77,1.19h-10.08v-13.8h4.64v12.62h6.21Z" fill="#fff" stroke-width="0"/>
    <path d="M136.69,152.04c-1.03,0-2-.18-2.91-.54-.91-.36-1.71-.85-2.39-1.48-.68-.63-1.22-1.36-1.61-2.19-.4-.84-.59-1.73-.59-2.69s.2-1.85.59-2.69.93-1.57,1.61-2.19c.68-.63,1.48-1.12,2.39-1.48.91-.36,1.88-.54,2.91-.54s2,.18,2.91.54c.91.36,1.7.85,2.37,1.48.67.62,1.21,1.36,1.6,2.19s.59,1.73.59,2.69-.2,1.85-.59,2.69c-.4.84-.93,1.57-1.6,2.19-.67.62-1.46,1.12-2.37,1.48-.91.36-1.88.54-2.91.54ZM133.82,145.14c0,.79.07,1.53.22,2.22.15.69.35,1.29.61,1.81.26.52.56.92.91,1.23s.73.46,1.13.46.75-.15,1.1-.46.65-.71.91-1.23c.26-.51.46-1.12.61-1.81s.22-1.43.22-2.22-.07-1.53-.22-2.22c-.15-.69-.35-1.29-.61-1.81-.26-.51-.56-.92-.91-1.23s-.72-.46-1.1-.46-.78.15-1.13.46-.65.71-.91,1.23c-.26.52-.46,1.12-.61,1.81-.15.69-.22,1.43-.22,2.22Z" fill="#fff" stroke-width="0"/>
    <path d="M153.2,152.04c-1.03,0-2-.18-2.91-.54-.91-.36-1.71-.85-2.39-1.48-.68-.63-1.22-1.36-1.61-2.19-.4-.84-.59-1.73-.59-2.69s.2-1.85.59-2.69.93-1.57,1.61-2.19c.68-.63,1.48-1.12,2.39-1.48.91-.36,1.88-.54,2.91-.54s2,.18,2.91.54c.91.36,1.7.85,2.37,1.48.67.62,1.21,1.36,1.6,2.19s.59,1.73.59,2.69-.2,1.85-.59,2.69c-.4.84-.93,1.57-1.6,2.19-.67.62-1.46,1.12-2.37,1.48-.91.36-1.88.54-2.91.54ZM150.33,145.14c0,.79.07,1.53.22,2.22.15.69.35,1.29.61,1.81.26.52.56.92.91,1.23s.73.46,1.13.46.75-.15,1.1-.46.65-.71.91-1.23c.26-.51.46-1.12.61-1.81s.22-1.43.22-2.22-.07-1.53-.22-2.22c-.15-.69-.35-1.29-.61-1.81-.26-.51-.56-.92-.91-1.23s-.72-.46-1.1-.46-.78.15-1.13.46-.65.71-.91,1.23c-.26.52-.46,1.12-.61,1.81-.15.69-.22,1.43-.22,2.22Z" fill="#fff" stroke-width="0"/>
  </g>
  <path d="M42.14,107.93l1.04,1.09c3.55,3.7,9.44,3.75,13.05.13l1.22-1.22h0c3.57,4.16,9.98,4.26,13.67.21l.19-.21.37.4c3.66,3.98,9.95,3.92,13.54-.12l.26-.29.48.51c3.7,3.92,9.98,3.8,13.52-.26l.21-.25.47.5c3.71,3.93,10,3.79,13.53-.29l.18-.21.71.74c3.69,3.83,9.86,3.7,13.39-.27l.41-.47.19.21c3.69,4.05,10.1,3.95,13.67-.2h0s.45.5.45.5c3.54,3.95,9.7,4.06,13.38.23l.71-.74h0c3.97,4.28,10.71,4.41,14.83.27l.27-.27v-5.59h-1.79" fill="none" stroke="#fff" stroke-miterlimit="10" stroke-width="2.97"/>
  <line x1="164.11" y1="154.62" x2="34.8" y2="154.62" fill="none" stroke="#fff" stroke-linecap="round" stroke-linejoin="round" stroke-width="2.97"/>
  <polyline points="27.69 102.34 46.5 102.34 61.04 102.34 75.03 102.34 89.69 102.34 117.14 102.34 130.42 102.34 144.97 102.34 159.52 102.34 170.55 102.34" fill="none" stroke="#fff" stroke-miterlimit="10" stroke-width="2.97"/>
  <path d="M29.4,102.34h-1.93v5.59l.7.59c1.92,1.63,4.28,2.43,6.64,2.43,2.66,0,5.32-1.01,7.33-3.02l1.05,1.09" fill="none" stroke="#fff" stroke-miterlimit="10" stroke-width="2.97"/>
  <polyline points="34.8 110.96 34.8 129.56 34.31 154.51 28.71 154.51 28.71 165.7 170.16 165.7 170.16 154.62 164.11 154.62 164.11 129.8 164.11 110.96" fill="none" stroke="#fff" stroke-linecap="round" stroke-linejoin="round" stroke-width="2.97"/>
  <polyline points="34.19 165.7 34.19 185.85 164.11 185.85 164.11 165.7" fill="none" stroke="#fff" stroke-linecap="round" stroke-linejoin="round" stroke-width="2.97"/>
  <line x1="34.19" y1="185.85" x2="27.47" y2="185.85" fill="none" stroke="#fff" stroke-linecap="round" stroke-linejoin="round" stroke-width="2.97"/>
  <g>
    <path d="M51.98,176.87v-1.46h4.25v1.46h-4.25Z" fill="#fff" stroke-width="0"/>
    <path d="M59.66,171.81h3.02l2.92,8.49h-3.02l-.8-2.34h-3.47l-.82,2.34h-.76l2.92-8.49ZM58.57,177.23h2.96l-1.48-4.3-1.48,4.3Z" fill="#fff" stroke-width="0"/>
    <path d="M75.96,171.81v8.49h-2.85v-6l-1.68,5.5h-1.9l-1.72-5.62v6.1h-.73v-8.48h2.99l1.51,4.98,1.53-4.98h2.85Z" fill="#fff" stroke-width="0"/>
    <path d="M82.52,178.55c0-.19-.12-.37-.37-.52-.25-.15-.56-.31-.93-.47-.37-.16-.78-.33-1.21-.5-.43-.17-.83-.38-1.21-.62-.37-.24-.69-.51-.93-.83-.25-.32-.37-.7-.37-1.14,0-.83.38-1.48,1.16-1.95.77-.48,1.82-.71,3.16-.71.42,0,.82.03,1.2.1s.72.15,1.04.25.58.21.82.32c.23.11.4.22.52.31l-.56.58c-.1-.08-.25-.17-.43-.26-.19-.1-.4-.19-.64-.27s-.49-.16-.76-.21c-.27-.06-.54-.08-.82-.08-.52,0-.95.09-1.3.28-.35.19-.52.43-.52.74,0,.19.12.37.37.52.25.15.56.31.93.47.37.16.78.33,1.21.5.43.18.83.38,1.21.62.37.24.69.52.93.83.25.32.37.7.37,1.14,0,.83-.38,1.48-1.15,1.95-.76.48-1.81.71-3.15.71-.42,0-.82-.04-1.21-.11-.39-.07-.73-.16-1.04-.26-.31-.1-.58-.21-.82-.32s-.4-.21-.52-.29l.58-.58c.1.08.25.17.43.26.19.1.4.19.63.27s.48.16.76.21c.27.06.54.08.82.08.62,0,1.08-.09,1.38-.28s.44-.43.44-.74Z" fill="#fff" stroke-width="0"/>
    <path d="M94.77,172.54h-3.02v7.76h-2.85v-7.76h-3.01l.48-.73h7.93l.48.73Z" fill="#fff" stroke-width="0"/>
    <path d="M98.81,179.57h3.82l-.48.73h-6.2v-8.49h6.2l.48.73h-3.82v2.16h3.09v.73h-3.09v4.14Z" fill="#fff" stroke-width="0"/>
    <path d="M104.08,171.81h3.94c.58,0,1.11.07,1.59.22s.9.35,1.25.6c.35.25.62.56.82.9.19.35.29.72.29,1.11,0,.28-.05.54-.14.76-.1.23-.21.43-.35.61-.14.18-.28.33-.43.46-.15.12-.29.23-.42.31l1.72,3.52h-3.18l-1.38-2.82h-.85v2.82h-2.85v-8.49ZM106.93,176.75c.31,0,.59-.06.85-.17s.49-.26.69-.45c.2-.19.35-.41.47-.67.11-.26.17-.53.17-.82s-.06-.57-.17-.82-.27-.48-.47-.67c-.2-.19-.43-.34-.69-.45s-.54-.16-.85-.16v4.21Z" fill="#fff" stroke-width="0"/>
    <path d="M113.78,180.3v-8.49h4.04c.5,0,.99.1,1.47.3.48.2.91.48,1.3.85s.69.81.93,1.33c.23.52.35,1.11.35,1.77s-.12,1.23-.35,1.76c-.23.53-.54.97-.93,1.34s-.82.65-1.3.85c-.48.2-.97.3-1.47.3h-4.04ZM116.63,179.57c.33,0,.64-.09.93-.28.29-.19.54-.44.76-.76.22-.32.38-.69.51-1.11.12-.42.19-.88.19-1.37s-.06-.94-.19-1.37-.29-.79-.51-1.11c-.21-.32-.47-.57-.76-.76-.29-.19-.6-.28-.93-.28v7.03Z" fill="#fff" stroke-width="0"/>
    <path d="M124.92,171.81h3.02l2.92,8.49h-3.02l-.8-2.34h-3.46l-.82,2.34h-.76l2.92-8.49ZM123.83,177.23h2.96l-1.48-4.3-1.48,4.3Z" fill="#fff" stroke-width="0"/>
    <path d="M141.23,171.81v8.49h-2.85v-6l-1.68,5.5h-1.9l-1.72-5.62v6.1h-.73v-8.48h2.99l1.51,4.98,1.53-4.98h2.85Z" fill="#fff" stroke-width="0"/>
    <path d="M142.75,176.87v-1.46h4.25v1.46h-4.25Z" fill="#fff" stroke-width="0"/>
  </g>
  <g id="GkkgXN">
    <g>
      <path d="M100.68,64.37c-.31-5.79,2.68-10.25,6.56-14.54,5.22-5.78,10.57-11.46,10.06-19.91-.47-7.86-7.32-14.67-15.96-15.67-8.39-.97-16.88,4.93-18.44,12.66" fill="none" stroke="#fff" stroke-linecap="round" stroke-linejoin="round" stroke-width="3.81"/>
      <path d="M25.37,107.19c.15-1.3-.59-8.96,1.35-9.55,15.75-4.83,28.06-14.83,41.59-23,10.24-6.18,21.6-9.49,33.68-8.88,13.61.7,25.49,5.85,36.47,13.56,11.02,7.74,22.8,14.73,36.19,18.89v8.97" fill="none" stroke="#fff" stroke-linecap="round" stroke-linejoin="round" stroke-width="3.81"/>
    </g>
  </g>
  <line x1="170.93" y1="185.71" x2="164.21" y2="185.71" fill="none" stroke="#fff" stroke-linecap="round" stroke-linejoin="round" stroke-width="2.97"/>
  <g id="GkkgXN-2" data-name="GkkgXN">
    <path d="M40.65,97.21c12.67-3.72,22.58-11.44,33.47-17.74,8.24-4.77,17.38-7.32,27.1-6.84,10.95.54,20.51,4.51,29.35,10.46,8.87,5.97,18.35,11.36,29.12,14.57l-119.04-.45Z" fill="none" stroke="#fff" stroke-linecap="round" stroke-linejoin="round" stroke-width="2.11"/>
  </g>
</svg>