<?xml version="1.0" encoding="utf-8"?>
<!-- Generator: Adobe Illustrator 28.1.0, SVG Export Plug-In . SVG Version: 6.00 Build 0)  -->
<svg version="1.1" id="Laag_1" xmlns="http://www.w3.org/2000/svg" xmlns:xlink="http://www.w3.org/1999/xlink" x="0px" y="0px"
	 viewBox="0 0 200 200" style="enable-background:new 0 0 200 200;" xml:space="preserve">
<style type="text/css">
	.st0{fill:#FFFFFF;}
	.st1{fill:none;stroke:#FFFFFF;stroke-width:3.7084;stroke-miterlimit:10;}
	.st2{fill:none;stroke:#FFFFFF;stroke-width:3.7084;stroke-linecap:round;stroke-linejoin:round;stroke-miterlimit:10;}
	.st3{fill:none;stroke:#FFFFFF;stroke-width:5.5965;stroke-linecap:round;stroke-linejoin:round;stroke-miterlimit:10;}
	.st4{fill:none;stroke:#FFFFFF;stroke-width:4.758;stroke-linecap:round;stroke-linejoin:round;stroke-miterlimit:10;}
	.st5{fill:none;stroke:#FFFFFF;stroke-width:2.6422;stroke-linecap:round;stroke-linejoin:round;stroke-miterlimit:10;}
</style>
<path class="st0" d="M91.51,128.6c-3.32-3.27-6.51-6.42-9.69-9.55c2.18-2.14,4.28-4.2,6.4-6.28c3.06,3.08,6.22,6.27,9.4,9.48
	c3.31-3.35,6.47-6.56,9.63-9.77c2.26,2.27,4.36,4.38,6.55,6.58c-3.18,3.14-6.39,6.31-9.68,9.56c3.31,3.23,6.52,6.36,9.71,9.48
	c-2.27,2.23-4.39,4.3-6.55,6.42c-3.04-3.06-6.19-6.24-9.43-9.49c-3.25,3.32-6.42,6.53-9.54,9.72c-2.29-2.23-4.42-4.3-6.65-6.47
	C84.93,135.06,88.13,131.92,91.51,128.6z"/>
<path class="st0" d="M42.77,138.32c3.48-3.37,6.7-6.48,9.99-9.66c-3.31-3.25-6.52-6.39-9.72-9.53c2.27-2.21,4.38-4.26,6.49-6.31
	c3,3.05,6.15,6.24,9.38,9.51c3.33-3.41,6.49-6.63,9.62-9.83c2.3,2.3,4.38,4.38,6.55,6.56c-3.19,3.09-6.4,6.21-9.68,9.4
	c3.43,3.36,6.65,6.52,10.08,9.88c-2,1.91-3.79,3.63-5.58,5.34c-1.13,1.09-1.13,1.08-2.21,0c-2.63-2.65-5.27-5.29-7.91-7.93
	c-0.2-0.2-0.42-0.37-0.75-0.66c-1.59,1.62-3.14,3.2-4.7,4.78c-1.44,1.45-2.89,2.89-4.32,4.35c-0.32,0.32-0.58,0.54-1.01,0.12
	C47.02,142.39,45.02,140.49,42.77,138.32z"/>
<path class="st0" d="M146.03,112.43c2.3,2.3,4.36,4.37,6.52,6.53c-3.24,3.14-6.48,6.28-9.73,9.43c3.44,3.34,6.67,6.48,9.93,9.64
	c-2.38,2.33-4.5,4.41-6.67,6.53c-3.1-3.14-6.25-6.32-9.46-9.57c-3.28,3.33-6.42,6.53-9.53,9.69c-2.25-2.25-4.35-4.34-6.59-6.58
	c1.6-1.55,3.25-3.13,4.88-4.74c1.33-1.3,2.61-2.65,3.96-3.92c0.66-0.62,0.66-1,0-1.65c-2.79-2.72-5.52-5.49-8.28-8.25
	c-0.17-0.18-0.32-0.38-0.45-0.54c2.11-2.11,4.19-4.19,6.26-6.26c3.09,3.12,6.24,6.3,9.43,9.51
	C139.64,118.89,142.81,115.69,146.03,112.43z"/>
<path class="st1" d="M42.47,104.19l1,1.05c3.4,3.55,9.06,3.61,12.53,0.12l1.17-1.18l0,0c3.43,4,9.58,4.09,13.13,0.2l0.18-0.2
	l0.36,0.39c3.51,3.82,9.55,3.77,13-0.11l0.25-0.28l0.46,0.49c3.55,3.77,9.58,3.65,12.98-0.25l0.21-0.24l0.45,0.48
	c3.56,3.77,9.6,3.64,12.99-0.28l0.18-0.2l0.69,0.71c3.54,3.67,9.47,3.55,12.86-0.26l0.4-0.45l0.19,0.2c3.55,3.89,9.7,3.8,13.13-0.2
	l0.01-0.01l0.44,0.49c3.4,3.8,9.31,3.9,12.85,0.22l0.68-0.71l0,0c3.81,4.11,10.28,4.23,14.24,0.26l0.26-0.26v-5.36h-1.72"/>
<line class="st2" x1="159.58" y1="149.02" x2="35.43" y2="149.02"/>
<path class="st3" d="M34.84,167.96"/>
<polyline class="st1" points="28.6,98.83 46.65,98.82 60.62,98.82 74.05,98.82 88.12,98.82 114.48,98.82 127.23,98.82 141.2,98.82 
	155.17,98.82 165.76,98.82 "/>
<path class="st1" d="M30.24,98.82h-1.85v5.37l0.67,0.57c1.84,1.56,4.11,2.33,6.37,2.34c2.55,0.01,5.11-0.97,7.04-2.9l1,1.05"/>
<polyline class="st2" points="35.43,107.1 35.43,124.96 34.95,148.92 29.58,148.92 29.58,159.66 165.38,159.66 165.38,149.02 
	159.58,149.02 159.58,125.19 159.58,107.1 "/>
<polyline class="st2" points="34.84,159.66 34.84,179 159.58,179 159.58,159.66 "/>
<line class="st2" x1="34.84" y1="179" x2="28.39" y2="179"/>
<path class="st4" d="M98.67,62.37c-0.3-5.56,2.58-9.84,6.29-13.96c5.01-5.55,10.15-11,9.66-19.12c-0.45-7.55-7.03-14.09-15.33-15.04
	c-8.06-0.93-16.2,4.73-17.7,12.16"/>
<path class="st4" d="M26.37,103.48c0.14-1.25-0.56-8.6,1.29-9.17c15.12-4.64,26.95-14.24,39.93-22.08
	c9.83-5.94,20.74-9.12,32.34-8.52c13.06,0.67,24.47,5.62,35.02,13.02c10.58,7.43,21.89,14.15,34.75,18.14v8.61"/>
<line class="st2" x1="166.13" y1="178.87" x2="159.67" y2="178.87"/>
<path class="st5" d="M41.04,93.89c12.16-3.58,21.68-10.98,32.13-17.03c7.91-4.58,16.69-7.03,26.02-6.57
	c10.51,0.52,19.69,4.33,28.18,10.04c8.52,5.73,17.61,10.91,27.96,13.99L41.04,93.89z"/>
</svg>
