<?xml version="1.0" encoding="utf-8"?>
<!-- Generator: Adobe Illustrator 28.1.0, SVG Export Plug-In . SVG Version: 6.00 Build 0)  -->
<svg version="1.1" id="Laag_1" xmlns="http://www.w3.org/2000/svg" xmlns:xlink="http://www.w3.org/1999/xlink" x="0px" y="0px"
	 viewBox="0 0 200 200" style="enable-background:new 0 0 200 200;" xml:space="preserve">
<style type="text/css">
	.st0{fill:#FFFFFF;}
</style>
<g>
	<g>
		<path class="st0" d="M39.07,80.04h8.28l-1.03,1.58H32.89V63.22h13.43l1.03,1.58h-8.28v4.67h6.7v1.58h-6.7V80.04z"/>
		<path class="st0" d="M56.91,63.22l4.01,6.18l5.74-6.18h2.13l-6.99,7.54l6.99,10.85h-7.36l-4.01-6.18l-5.74,6.18h-2.13l7.03-7.54
			l-7.03-10.85H56.91z"/>
		<path class="st0" d="M71.77,63.22h8.54c1.08,0,2.13,0.15,3.15,0.44c1.02,0.29,1.92,0.71,2.72,1.25s1.44,1.19,1.93,1.95
			c0.49,0.76,0.73,1.59,0.73,2.5c0,0.91-0.24,1.74-0.73,2.5c-0.49,0.76-1.13,1.41-1.93,1.95c-0.8,0.54-1.71,0.96-2.72,1.25
			c-1.02,0.29-2.07,0.44-3.15,0.44h-2.35v6.11h-6.18V63.22z M77.95,73.93c0.66,0,1.27-0.12,1.84-0.37c0.56-0.25,1.06-0.57,1.49-0.97
			c0.43-0.4,0.77-0.89,1.01-1.45c0.25-0.56,0.37-1.15,0.37-1.77c0-0.64-0.12-1.23-0.37-1.78c-0.24-0.55-0.58-1.04-1.01-1.45
			c-0.43-0.42-0.93-0.74-1.49-0.97c-0.56-0.23-1.18-0.35-1.84-0.35V73.93z"/>
		<path class="st0" d="M105.87,80.04l-1.03,1.58H91.41V63.22h6.18v16.81H105.87z"/>
		<path class="st0" d="M116.43,81.62c-1.37,0-2.67-0.24-3.88-0.72c-1.21-0.48-2.27-1.13-3.18-1.97c-0.91-0.83-1.62-1.81-2.15-2.92
			c-0.53-1.11-0.79-2.31-0.79-3.59s0.26-2.47,0.79-3.59c0.53-1.12,1.24-2.09,2.15-2.92c0.91-0.83,1.97-1.49,3.18-1.97
			c1.21-0.48,2.51-0.72,3.88-0.72c1.37,0,2.67,0.24,3.88,0.72c1.21,0.48,2.27,1.13,3.16,1.97c0.9,0.83,1.61,1.81,2.14,2.92
			c0.53,1.12,0.79,2.31,0.79,3.59s-0.26,2.47-0.79,3.59c-0.53,1.12-1.24,2.09-2.14,2.92c-0.89,0.84-1.95,1.49-3.16,1.97
			C119.1,81.38,117.8,81.62,116.43,81.62z M112.6,72.42c0,1.05,0.1,2.04,0.29,2.96c0.2,0.92,0.46,1.72,0.81,2.41
			c0.35,0.69,0.75,1.23,1.22,1.64c0.46,0.4,0.97,0.61,1.51,0.61c0.51,0,1.01-0.2,1.47-0.61c0.47-0.4,0.87-0.95,1.21-1.64
			c0.34-0.69,0.61-1.49,0.81-2.41s0.29-1.91,0.29-2.96s-0.1-2.04-0.29-2.96c-0.2-0.92-0.47-1.72-0.81-2.41
			c-0.34-0.69-0.75-1.23-1.21-1.64c-0.46-0.4-0.96-0.61-1.47-0.61c-0.54,0-1.04,0.2-1.51,0.61c-0.47,0.4-0.87,0.95-1.22,1.64
			c-0.34,0.69-0.61,1.49-0.81,2.41C112.7,70.38,112.6,71.37,112.6,72.42z"/>
		<path class="st0" d="M128.97,63.22h8.53c1.25,0,2.4,0.16,3.44,0.48c1.04,0.32,1.94,0.75,2.7,1.31c0.76,0.55,1.35,1.2,1.77,1.95
			c0.42,0.75,0.62,1.55,0.62,2.41c0,0.61-0.1,1.17-0.31,1.66c-0.21,0.49-0.46,0.93-0.75,1.33c-0.29,0.39-0.61,0.72-0.94,0.99
			c-0.33,0.27-0.63,0.49-0.9,0.66l3.72,7.61h-6.88l-2.98-6.11h-1.84v6.11h-6.18V63.22z M135.15,73.93c0.66,0,1.27-0.12,1.84-0.37
			c0.56-0.25,1.06-0.57,1.49-0.97c0.43-0.4,0.77-0.89,1.01-1.45c0.24-0.56,0.37-1.15,0.37-1.77c0-0.64-0.12-1.23-0.37-1.78
			c-0.25-0.55-0.58-1.04-1.01-1.45c-0.43-0.42-0.92-0.74-1.49-0.97c-0.57-0.23-1.18-0.35-1.84-0.35V73.93z"/>
		<path class="st0" d="M156.16,80.04h8.28l-1.03,1.58h-13.43V63.22h13.43l1.03,1.58h-8.28v4.67h6.7v1.58h-6.7V80.04z"/>
	</g>
	<g>
		<g>
			<path class="st0" d="M14.82,92.03l5.79,17.82l2.59-9.94l-2.14-7.88h7.27l4.72,17.82l5.75-17.82h1.89l-6.73,20.53h-7.27l-2.59-9.4
				l-2.59,9.4H14.2L7.51,92.03H14.82z"/>
			<path class="st0" d="M45.69,92.03H53l7.06,20.53h-7.31l-1.93-5.67h-8.38l-1.97,5.67h-1.85L45.69,92.03z M43.07,105.13h7.14
				l-3.57-10.39L43.07,105.13z"/>
			<path class="st0" d="M80.8,93.8h-7.31v18.76h-6.9V93.8h-7.27l1.15-1.77h19.17L80.8,93.8z"/>
			<path class="st0" d="M90.57,110.8h9.24l-1.15,1.76H83.67V92.03h14.99l1.15,1.77h-9.24v5.22h7.47v1.76h-7.47V110.8z"/>
			<path class="st0" d="M103.3,92.03h9.53c1.4,0,2.67,0.18,3.84,0.54c1.16,0.36,2.17,0.84,3.02,1.46c0.85,0.61,1.51,1.34,1.97,2.18
				c0.46,0.84,0.7,1.73,0.7,2.69c0,0.69-0.12,1.3-0.35,1.85c-0.23,0.55-0.51,1.04-0.84,1.48c-0.33,0.44-0.68,0.81-1.05,1.11
				c-0.37,0.3-0.71,0.55-1.01,0.74l4.15,8.5h-7.68l-3.33-6.81h-2.05v6.81h-6.9V92.03z M110.2,103.98c0.74,0,1.42-0.14,2.05-0.41
				c0.63-0.27,1.18-0.64,1.66-1.09c0.48-0.45,0.86-0.99,1.13-1.62c0.27-0.63,0.41-1.28,0.41-1.97c0-0.71-0.14-1.38-0.41-1.99
				c-0.27-0.62-0.65-1.16-1.13-1.62c-0.48-0.46-1.03-0.83-1.66-1.09c-0.63-0.26-1.31-0.39-2.05-0.39V103.98z"/>
			<path class="st0" d="M142.88,110.8l-1.15,1.76h-14.99V92.03h6.9v18.77H142.88z"/>
			<path class="st0" d="M154.66,112.56c-1.53,0-2.98-0.27-4.33-0.8c-1.36-0.54-2.54-1.27-3.55-2.2c-1.01-0.93-1.81-2.02-2.4-3.27
				c-0.59-1.25-0.88-2.58-0.88-4c0-1.42,0.29-2.76,0.88-4c0.59-1.25,1.39-2.33,2.4-3.27c1.01-0.93,2.2-1.66,3.55-2.2
				s2.8-0.8,4.33-0.8s2.98,0.27,4.33,0.8s2.53,1.27,3.53,2.2c1,0.93,1.79,2.02,2.38,3.27c0.59,1.24,0.88,2.58,0.88,4
				c0,1.42-0.29,2.76-0.88,4c-0.59,1.25-1.38,2.33-2.38,3.27c-1,0.93-2.18,1.66-3.53,2.2C157.64,112.29,156.2,112.56,154.66,112.56z
				 M150.39,102.3c0,1.18,0.11,2.28,0.33,3.31c0.22,1.03,0.52,1.92,0.9,2.69c0.38,0.77,0.84,1.38,1.36,1.83
				c0.52,0.45,1.08,0.68,1.68,0.68c0.57,0,1.12-0.23,1.64-0.68c0.52-0.45,0.97-1.06,1.35-1.83c0.38-0.76,0.69-1.66,0.9-2.69
				c0.22-1.03,0.33-2.13,0.33-3.31c0-1.18-0.11-2.28-0.33-3.31c-0.22-1.03-0.52-1.92-0.9-2.69c-0.38-0.76-0.84-1.38-1.35-1.83
				c-0.52-0.45-1.07-0.68-1.64-0.68c-0.6,0-1.16,0.23-1.68,0.68c-0.52,0.45-0.97,1.06-1.36,1.83c-0.38,0.77-0.68,1.66-0.9,2.69
				C150.5,100.02,150.39,101.12,150.39,102.3z"/>
			<path class="st0" d="M179.21,112.56c-1.53,0-2.98-0.27-4.33-0.8c-1.36-0.54-2.54-1.27-3.55-2.2c-1.01-0.93-1.81-2.02-2.4-3.27
				c-0.59-1.25-0.88-2.58-0.88-4c0-1.42,0.29-2.76,0.88-4c0.59-1.25,1.39-2.33,2.4-3.27c1.01-0.93,2.2-1.66,3.55-2.2
				s2.8-0.8,4.33-0.8c1.53,0,2.98,0.27,4.33,0.8s2.53,1.27,3.53,2.2c1,0.93,1.79,2.02,2.38,3.27c0.59,1.24,0.88,2.58,0.88,4
				c0,1.42-0.29,2.76-0.88,4c-0.59,1.25-1.38,2.33-2.38,3.27c-1,0.93-2.18,1.66-3.53,2.2C182.19,112.29,180.75,112.56,179.21,112.56
				z M174.94,102.3c0,1.18,0.11,2.28,0.33,3.31c0.22,1.03,0.52,1.92,0.9,2.69c0.38,0.77,0.84,1.38,1.36,1.83
				c0.52,0.45,1.08,0.68,1.68,0.68c0.57,0,1.12-0.23,1.64-0.68c0.52-0.45,0.97-1.06,1.35-1.83c0.38-0.76,0.69-1.66,0.9-2.69
				c0.22-1.03,0.33-2.13,0.33-3.31c0-1.18-0.11-2.28-0.33-3.31c-0.22-1.03-0.52-1.92-0.9-2.69c-0.38-0.76-0.84-1.38-1.35-1.83
				c-0.52-0.45-1.07-0.68-1.64-0.68c-0.6,0-1.16,0.23-1.68,0.68c-0.52,0.45-0.97,1.06-1.36,1.83c-0.38,0.77-0.68,1.66-0.9,2.69
				C175.05,100.02,174.94,101.12,174.94,102.3z"/>
		</g>
	</g>
</g>
<g>
	<path class="st0" d="M28.25,139.09v-2.17h6.32v2.17H28.25z"/>
	<path class="st0" d="M39.67,131.56h4.5l4.34,12.63h-4.5l-1.19-3.49h-5.15l-1.21,3.49h-1.14L39.67,131.56z M38.05,139.62h4.4
		l-2.2-6.39L38.05,139.62z"/>
	<path class="st0" d="M63.93,131.56v12.63h-4.25v-8.92l-2.5,8.19h-2.83l-2.55-8.36v9.07h-1.09v-12.61h4.45l2.25,7.4l2.27-7.4H63.93z
		"/>
	<path class="st0" d="M73.68,141.59c0-0.29-0.19-0.54-0.56-0.77c-0.37-0.23-0.84-0.46-1.39-0.69s-1.15-0.48-1.79-0.75
		s-1.24-0.57-1.8-0.92c-0.56-0.35-1.02-0.77-1.39-1.24c-0.37-0.47-0.56-1.04-0.56-1.69c0-1.23,0.57-2.2,1.72-2.91
		c1.15-0.71,2.71-1.06,4.7-1.06c0.62,0,1.22,0.05,1.78,0.15c0.57,0.1,1.08,0.23,1.54,0.38c0.46,0.15,0.87,0.31,1.21,0.48
		c0.35,0.17,0.6,0.32,0.77,0.45l-0.84,0.86c-0.15-0.12-0.37-0.25-0.64-0.39c-0.28-0.14-0.59-0.28-0.95-0.4
		c-0.35-0.13-0.73-0.23-1.14-0.31c-0.4-0.08-0.81-0.13-1.21-0.13c-0.78,0-1.42,0.14-1.93,0.42c-0.51,0.28-0.77,0.64-0.77,1.1
		c0,0.29,0.19,0.54,0.56,0.77c0.37,0.23,0.83,0.46,1.39,0.69c0.56,0.24,1.16,0.48,1.8,0.75s1.24,0.57,1.79,0.92s1.02,0.77,1.39,1.24
		c0.37,0.47,0.56,1.04,0.56,1.69c0,1.23-0.57,2.2-1.71,2.9s-2.7,1.06-4.69,1.06c-0.62,0-1.22-0.05-1.8-0.17
		c-0.57-0.11-1.09-0.24-1.55-0.39c-0.46-0.15-0.87-0.31-1.21-0.48c-0.34-0.17-0.6-0.31-0.77-0.43l0.86-0.86
		c0.15,0.12,0.37,0.25,0.64,0.39c0.28,0.14,0.59,0.28,0.93,0.4c0.35,0.13,0.72,0.23,1.12,0.31c0.4,0.09,0.81,0.13,1.21,0.13
		c0.93,0,1.61-0.14,2.05-0.42C73.46,142.41,73.68,142.05,73.68,141.59z"/>
	<path class="st0" d="M91.9,132.65h-4.5v11.55h-4.25v-11.55h-4.47l0.71-1.09h11.8L91.9,132.65z"/>
	<path class="st0" d="M97.91,143.11h5.68l-0.71,1.09h-9.22v-12.63h9.22l0.71,1.09h-5.68v3.21h4.6v1.09h-4.6V143.11z"/>
	<path class="st0" d="M105.75,131.56h5.86c0.86,0,1.65,0.11,2.36,0.33c0.72,0.22,1.34,0.52,1.86,0.9c0.52,0.38,0.93,0.83,1.21,1.34
		c0.29,0.52,0.43,1.07,0.43,1.66c0,0.42-0.07,0.8-0.22,1.14c-0.14,0.34-0.31,0.64-0.52,0.91s-0.42,0.5-0.64,0.68
		c-0.23,0.19-0.43,0.34-0.62,0.45l2.55,5.23h-4.73l-2.05-4.19h-1.26v4.19h-4.25V131.56z M109.99,138.91c0.45,0,0.88-0.08,1.26-0.25
		c0.39-0.17,0.73-0.39,1.03-0.67c0.29-0.28,0.53-0.61,0.69-1c0.17-0.39,0.25-0.79,0.25-1.21c0-0.44-0.09-0.85-0.25-1.23
		c-0.17-0.38-0.4-0.71-0.69-1c-0.3-0.28-0.64-0.51-1.03-0.67c-0.39-0.16-0.81-0.24-1.26-0.24V138.91z"/>
	<path class="st0" d="M120.17,144.19v-12.63h6.01c0.74,0,1.47,0.15,2.18,0.44c0.72,0.29,1.36,0.72,1.93,1.26
		c0.57,0.55,1.03,1.21,1.38,1.98c0.35,0.77,0.52,1.65,0.52,2.63c0,0.96-0.17,1.83-0.52,2.62c-0.35,0.78-0.8,1.45-1.38,2
		c-0.57,0.55-1.22,0.97-1.93,1.26c-0.72,0.29-1.44,0.44-2.18,0.44H120.17z M124.42,143.11c0.49,0,0.95-0.14,1.38-0.42
		c0.43-0.28,0.8-0.65,1.12-1.12c0.32-0.47,0.57-1.02,0.76-1.66c0.19-0.63,0.28-1.31,0.28-2.03s-0.09-1.4-0.28-2.03
		c-0.19-0.63-0.44-1.18-0.76-1.66c-0.32-0.47-0.7-0.85-1.12-1.12c-0.43-0.28-0.89-0.42-1.38-0.42V143.11z"/>
	<path class="st0" d="M136.75,131.56h4.5l4.34,12.63h-4.5l-1.19-3.49h-5.15l-1.21,3.49h-1.14L136.75,131.56z M135.13,139.62h4.4
		l-2.2-6.39L135.13,139.62z"/>
	<path class="st0" d="M161.01,131.56v12.63h-4.25v-8.92l-2.5,8.19h-2.83l-2.55-8.36v9.07h-1.09v-12.61h4.45l2.25,7.4l2.27-7.4
		H161.01z"/>
	<path class="st0" d="M163.28,139.09v-2.17h6.32v2.17H163.28z"/>
</g>
</svg>
